<?xml version="1.0" encoding="iso-8859-1"?>
<!-- Generator: Adobe Illustrator 19.0.0, SVG Export Plug-In . SVG Version: 6.00 Build 0)  -->
<svg version="1.1" id="Layer_1" xmlns="http://www.w3.org/2000/svg" xmlns:xlink="http://www.w3.org/1999/xlink" x="0px" y="0px"
	 viewBox="0 0 512 512" style="enable-background:new 0 0 512 512;" xml:space="preserve">
<path style="fill:#E5E5E5;" d="M478.33,401.37H33.67V75.357c0-8.855,7.179-16.033,16.033-16.033h412.593
	c8.855,0,16.033,7.179,16.033,16.033V401.37z"/>
<path style="fill:#6DDAE1;" d="M478.33,75.357c0-8.855-7.179-16.033-16.033-16.033H49.704c-8.855,0-16.033,7.179-16.033,16.033
	v27.078h444.66V75.357z"/>
<path style="fill:#CCCCCC;" d="M92.459,59.324H49.704c-8.855,0-16.033,7.179-16.033,16.033V401.37h42.756V75.357
	C76.426,66.502,83.605,59.324,92.459,59.324z"/>
<path style="fill:#6DDAE1;" d="M487.95,452.676H24.05c-8.855,0-16.033-7.179-16.033-16.033V401.37h495.967v35.273
	C503.983,445.498,496.805,452.676,487.95,452.676z"/>
<g>
	<path style="fill:#4FC4D3;" d="M50.772,436.643V401.37H8.017v35.273c0,8.855,7.179,16.033,16.033,16.033h42.756
		C57.951,452.676,50.772,445.498,50.772,436.643z"/>
	<path style="fill:#4FC4D3;" d="M92.459,59.324H49.704c-8.855,0-16.033,7.179-16.033,16.033v27.078h42.756V75.357
		C76.426,66.502,83.605,59.324,92.459,59.324z"/>
	<rect x="221.795" y="401.37" style="fill:#4FC4D3;" width="68.409" height="25.653"/>
</g>
<polygon style="fill:#FF8C78;" points="256,187.591 187.591,221.795 187.591,332.96 238.898,332.96 238.898,273.102 
	273.102,273.102 273.102,332.96 324.409,332.96 324.409,221.795 "/>
<polygon style="fill:#DF7A6E;" points="187.591,221.795 187.591,332.96 214.313,332.96 214.313,208.434 "/>
<path d="M503.983,393.353h-17.637V75.357c0-13.262-10.789-24.05-24.05-24.05H49.704c-13.261,0-24.05,10.788-24.05,24.05v206.296
	c0,4.427,3.588,8.017,8.017,8.017s8.017-3.589,8.017-8.017V110.452h428.626v282.901H41.687v-68.944c0-4.427-3.588-8.017-8.017-8.017
	s-8.017,3.589-8.017,8.017v68.944H8.017c-4.428,0-8.017,3.589-8.017,8.017v35.273c0,13.262,10.789,24.05,24.05,24.05h368.768
	c4.428,0,8.017-3.589,8.017-8.017c0-4.427-3.588-8.017-8.017-8.017H24.05c-4.421,0-8.017-3.596-8.017-8.017v-27.257h197.745v17.637
	c0,4.427,3.588,8.017,8.017,8.017h68.409c4.428,0,8.017-3.589,8.017-8.017v-17.637h197.745v27.257c0,4.421-3.596,8.017-8.017,8.017
	h-52.376c-4.428,0-8.017,3.589-8.017,8.017c0,4.427,3.588,8.017,8.017,8.017h52.376c13.261,0,24.05-10.788,24.05-24.05V401.37
	C512,396.942,508.412,393.353,503.983,393.353z M41.687,94.419V75.357c0-4.421,3.596-8.017,8.017-8.017h412.593
	c4.421,0,8.017,3.596,8.017,8.017v19.062H41.687z M282.188,419.006h-52.376v-9.62h52.376V419.006z"/>
<path d="M273.102,340.977h51.307c4.428,0,8.017-3.589,8.017-8.017V221.795c0-3.037-1.716-5.813-4.432-7.17l-68.409-34.205
	c-2.256-1.129-4.915-1.129-7.171,0l-68.409,34.205c-2.715,1.357-4.432,4.133-4.432,7.17V332.96c0,4.427,3.588,8.017,8.017,8.017
	h51.307c4.428,0,8.017-3.589,8.017-8.017v-51.841h18.171v51.841C265.086,337.388,268.674,340.977,273.102,340.977z M238.898,265.086
	c-4.428,0-8.017,3.589-8.017,8.017v51.841h-35.273V226.75L256,196.553l60.392,30.196v98.194h-35.273v-51.841
	c0-4.427-3.588-8.017-8.017-8.017H238.898z"/>
<path d="M350.055,212.711c2.839,0,5.589-1.511,7.045-4.179c2.12-3.886,0.688-8.756-3.198-10.876l-94.063-51.307
	c-2.394-1.306-5.284-1.306-7.679,0l-94.063,51.307c-3.887,2.12-5.319,6.99-3.198,10.876c2.121,3.887,6.988,5.321,10.877,3.199
	L256,162.518l90.223,49.213C347.443,212.397,348.758,212.711,350.055,212.711z"/>
<path d="M395.7,295.873c3.089,3.088,8.249,3.088,11.338,0l25.653-25.653c3.131-3.131,3.131-8.207,0-11.337l-25.653-25.653
	c-3.132-3.131-8.207-3.131-11.338,0c-3.131,3.131-3.131,8.207,0,11.337l19.985,19.985L395.7,284.536
	C392.57,287.666,392.57,292.743,395.7,295.873z"/>
<path d="M116.3,233.229c-3.132-3.131-8.207-3.131-11.338,0l-25.653,25.653c-3.131,3.131-3.131,8.207,0,11.337l25.653,25.653
	c3.261,3.26,8.766,3.041,11.764-0.46c2.686-3.137,2.493-7.959-0.425-10.877l-19.987-19.985l19.985-19.985
	C119.43,241.436,119.43,236.359,116.3,233.229z"/>
<g>
</g>
<g>
</g>
<g>
</g>
<g>
</g>
<g>
</g>
<g>
</g>
<g>
</g>
<g>
</g>
<g>
</g>
<g>
</g>
<g>
</g>
<g>
</g>
<g>
</g>
<g>
</g>
<g>
</g>
</svg>
